<svg width="232" height="40" viewBox="0 0 232 40" fill="none" xmlns="http://www.w3.org/2000/svg" role="img" aria-label="Valuation Copilot BR">
  <defs>
    <linearGradient id="vcbGradient" x1="6" y1="20" x2="34" y2="20" gradientUnits="userSpaceOnUse">
      <stop offset="0" stop-color="#2563EB"/>
      <stop offset="0.5" stop-color="#3B82F6"/>
      <stop offset="1" stop-color="#22C55E"/>
    </linearGradient>
  </defs>
  <rect width="40" height="40" rx="10" fill="#0F172A"/>
  <g stroke="url(#vcbGradient)" stroke-width="2.15" stroke-linecap="round" stroke-linejoin="round">
    <path d="M18.6 32V24.2L13.9 19.5V14.7"/>
    <path d="M21.4 32V24.2L26.1 19.5V14.7"/>
    <path d="M13.9 19.5H9.4L6.8 17"/>
    <path d="M13.9 14.7L10.6 12.1V8.9"/>
    <path d="M13.9 14.7L17.1 12.2V8.4"/>
    <path d="M9.4 19.5L6.5 22.2"/>
    <path d="M6.8 17L4.7 15"/>
    <path d="M6.8 17L4.8 18.9"/>
    <path d="M10.6 8.9L8.5 7.4"/>
    <path d="M10.6 8.9L12.5 7.2"/>
    <path d="M17.1 8.4L15.1 6.7"/>
    <path d="M17.1 8.4L19.2 6.7"/>
    <path d="M6.5 22.2L4.4 20.6"/>
    <path d="M6.5 22.2L4.4 24.1"/>
    <path d="M26.1 19.5H30.6L33.2 17"/>
    <path d="M26.1 14.7L29.4 12.1V8.9"/>
    <path d="M26.1 14.7L22.9 12.2V8.4"/>
    <path d="M30.6 19.5L33.5 22.2"/>
    <path d="M33.2 17L35.3 15"/>
    <path d="M33.2 17L35.2 18.9"/>
    <path d="M29.4 8.9L31.5 7.4"/>
    <path d="M29.4 8.9L27.5 7.2"/>
    <path d="M22.9 8.4L24.9 6.7"/>
    <path d="M22.9 8.4L20.8 6.7"/>
    <path d="M33.5 22.2L35.6 20.6"/>
    <path d="M33.5 22.2L35.6 24.1"/>
  </g>
  <text x="52" y="25.5" fill="#FFFFFF" font-family="Inter, ui-sans-serif, system-ui, -apple-system, BlinkMacSystemFont, Segoe UI, sans-serif" font-size="16" font-weight="650" letter-spacing="-0.04em">Valuation Copilot</text>
  <rect x="190" y="10" width="30" height="20" rx="7" fill="#1E293B"/>
  <text x="196" y="24.2" fill="#E5E7EB" font-family="Inter, ui-sans-serif, system-ui, -apple-system, BlinkMacSystemFont, Segoe UI, sans-serif" font-size="10" font-weight="800" letter-spacing="0.08em">BR</text>
</svg>